<svg width="311" height="217" viewBox="0 0 311 217" fill="none" xmlns="http://www.w3.org/2000/svg">
<path fill-rule="evenodd" clip-rule="evenodd" d="M310 85H311V86C310.333 86.6667 310 87.3333 310 88C309.333 88 308 88.3333 306 89H302C302 88.3333 298.667 86 292 82C285.333 77.3333 279.333 73.6667 274 71C268 69 262.667 66.6667 258 64C253.333 61.3333 248.333 58 243 54C237 50 232 47.3333 228 46C223.333 44.6667 219.667 42 217 38L213 32V31H212V30H211V29H210V28H208V27H207V26H206L207 36C207.667 42 208.667 45.6667 210 47C212 47.6667 214.333 48.6667 217 50C220.333 51.3333 222.667 53.6667 224 57C226 60.3333 228 62.3333 230 63C231.333 63.6667 232.333 64 233 64H234L235 65L236 66H237V67H238V68H236L232 69C229.333 69.6667 227 70 225 70C223 70 219.333 70.3333 214 71L207 72L206 71L205 70H204V68C204 66.6667 205 65.3333 207 64L210 62V60H209L208 59C207.333 58.3333 205.333 57.3333 202 56C198.667 54.6667 196.333 51 195 45L192 37V36H191L190 35H188V37L187 38L186 40L181 58C177.667 70.667 173.333 80.667 168 88C163.333 94.6667 158.667 101.667 154 109C150 115.667 147.333 120.667 146 124C144.667 126.667 144 129 144 131V134L143 135L142 136H140V131C140 127.667 141.333 122.667 144 116C146.667 108.667 150.333 101.333 155 94C159.667 86.6667 163.333 79.333 166 72L170 60V54H164L163 55L162 56H161V57H160L157 64C155 68.6667 151.333 78 146 92C140.667 106 134.333 119.667 127 133C119.667 145.667 112 156.667 104 166C96.6667 174 90 180 84 184C78 188 71.333 191.333 64 194C57.3333 196.667 53.667 198.333 53 199L52 200H50V201H49V202H46V203V200H47V199H48V198H49V197H50V196H51V195C51.6667 195 58.3333 190.667 71 182C84.333 172.667 92.667 166.333 96 163C100 159.667 104.667 153.333 110 144C115.333 134.667 120 126 124 118C126.667 110.667 125.667 104.333 121 99C115.667 93 111.333 90 108 90C105.333 90 102.333 90.6667 99 92C95.6667 93.3333 93 96 91 100C89 104 85.3333 114.667 80 132L72 157L71 158L70 160V163H69V164H68V160L69 157L70 154V151H69V152H68V153L67 154L66 155V156H65V157H64L60 163C56.6667 167.667 55 170 55 170H54V171H53V172H49L48 173L47 174H45V173H46V171H47V170H48V168L49 167C49.6667 166.333 53 160.333 59 149C65 137.667 68.6667 130 70 126L72 121V117H71V116H69V117H68V119H67V120H66V122L48 154C36 175.333 29.333 187 28 189L26 192V193H25V194H24V196H23V197H22V199H21V200L16 204L10 210H9V211H8V212H7V213H6V214H5L4 215L3 216H2L1 217H0V215H2V213L3 212L4 211V210H5V209C5.66667 209 8 206 12 200C16 193.333 21 184 27 172L36 155L37 154L38 153V151H39V150H40V149C40 148.333 44.6667 138.667 54 120C63.3333 101.333 69 90.667 71 88C73.6667 85.3333 76 84 78 84C80.6667 84 83 82.3333 85 79C87 76.3333 90 72 94 66C98 60 100.667 56.3333 102 55L105 54H107L110 55C111.333 56.3333 114.667 60.3333 120 67C124 73.6667 126.667 78 128 80C129.333 81.3333 130.333 82 131 82H132V83L133 84L134 85V86H138V83L145 68C149.667 58 153.333 51.333 156 48C159.333 45.3333 162.667 42.3333 166 39C170 35.6667 175.333 29.3333 182 20C188.667 10.6667 192.667 5.333 194 4C196 2.6667 198.667 1.3333 202 0C205.333 0 209.333 1.6667 214 5C218 8.3333 222.667 12 228 16C232 20.6667 236.333 26 241 32C245.667 38.6667 250.333 44 255 48C260.333 52 268.333 57.3333 279 64C289.667 70.6667 297.333 75.333 302 78C306 82 308.333 84 309 84C309.667 84 310 84.3333 310 85Z" fill="#D7D4D3"/>
<path d="M171.287 172.491C171.238 173.451 171.214 174.412 171.214 175.372C171.214 176.332 171.189 177.276 171.141 178.204C171.108 178.578 171.043 178.961 170.945 179.352C170.864 179.742 170.823 180.125 170.823 180.499C170.823 180.808 170.848 181.101 170.896 181.378C170.945 181.638 170.97 181.899 170.97 182.159C170.97 182.452 170.913 182.737 170.799 183.014C170.701 183.274 170.612 183.567 170.53 183.893C170.465 184.234 170.424 184.592 170.408 184.967C170.392 185.341 170.376 185.715 170.359 186.09C170.343 186.464 170.327 186.822 170.311 187.164C170.294 187.506 170.254 187.815 170.188 188.092C170.14 188.287 170.026 188.507 169.847 188.751C169.684 188.979 169.497 189.215 169.285 189.459C169.074 189.703 168.862 189.947 168.65 190.191C168.455 190.419 168.3 190.639 168.187 190.851C168.089 191.03 168.007 191.225 167.942 191.437C167.877 191.648 167.82 191.86 167.771 192.071C167.723 192.283 167.674 192.486 167.625 192.682C167.576 192.877 167.511 193.032 167.43 193.146C167.299 193.341 167.096 193.52 166.819 193.683C166.559 193.845 166.266 193.984 165.94 194.098C165.631 194.228 165.306 194.342 164.964 194.439C164.638 194.537 164.329 194.627 164.036 194.708C163.434 194.871 162.881 195.034 162.376 195.196C161.871 195.359 161.375 195.506 160.887 195.636C160.398 195.782 159.902 195.896 159.397 195.978C158.909 196.059 158.372 196.1 157.786 196.1C157.151 196.1 156.508 196.059 155.857 195.978C155.206 195.896 154.58 195.79 153.978 195.66C153.375 195.53 152.806 195.367 152.269 195.172C151.748 194.993 151.284 194.789 150.877 194.562C150.698 194.448 150.486 194.366 150.242 194.317C149.998 194.269 149.811 194.195 149.681 194.098C149.502 193.967 149.306 193.78 149.095 193.536C148.899 193.276 148.68 193.048 148.436 192.853C147.882 192.446 147.345 192.039 146.824 191.632C146.303 191.209 145.856 190.647 145.481 189.947C145.351 189.703 145.278 189.41 145.262 189.068C145.245 188.727 145.172 188.401 145.042 188.092C144.928 187.815 144.782 187.563 144.603 187.335C144.44 187.091 144.334 186.879 144.285 186.7C144.22 186.456 144.171 186.188 144.139 185.895C144.106 185.602 144.074 185.3 144.041 184.991C144.008 184.666 143.968 184.348 143.919 184.039C143.886 183.714 143.838 183.421 143.772 183.16C143.675 182.688 143.545 182.175 143.382 181.622C143.219 181.069 143.138 180.58 143.138 180.157C143.138 179.881 143.195 179.669 143.309 179.522C143.423 179.36 143.561 179.221 143.724 179.107C143.886 178.977 144.057 178.847 144.236 178.717C144.432 178.587 144.594 178.416 144.725 178.204C144.871 177.976 144.977 177.74 145.042 177.496C145.107 177.252 145.172 177.008 145.237 176.764C145.319 176.52 145.408 176.292 145.506 176.08C145.604 175.868 145.758 175.689 145.97 175.543C146.149 175.429 146.344 175.348 146.556 175.299C146.767 175.25 146.979 175.226 147.19 175.226C147.418 175.209 147.646 175.201 147.874 175.201C148.118 175.185 148.354 175.152 148.582 175.104C148.94 175.022 149.225 174.924 149.437 174.811C149.664 174.697 149.892 174.64 150.12 174.64C150.576 174.64 150.983 174.729 151.341 174.908C151.699 175.087 152.065 175.25 152.439 175.396C152.895 175.592 153.294 175.795 153.636 176.007C153.994 176.202 154.311 176.43 154.588 176.69C154.881 176.951 155.149 177.252 155.394 177.594C155.638 177.919 155.882 178.318 156.126 178.79C156.321 179.164 156.46 179.474 156.541 179.718C156.622 179.946 156.671 180.174 156.688 180.401C156.72 180.613 156.736 180.865 156.736 181.158C156.736 181.451 156.753 181.85 156.785 182.354C156.785 182.761 156.834 183.168 156.932 183.575C157.029 183.966 157.078 184.373 157.078 184.796C157.078 185.17 157.07 185.561 157.054 185.968C157.037 186.358 157.029 186.749 157.029 187.14C157.029 187.726 157.062 188.303 157.127 188.873C157.192 189.426 157.322 189.923 157.518 190.362C157.713 190.802 157.99 191.16 158.348 191.437C158.722 191.713 159.218 191.852 159.837 191.852C160.146 191.852 160.415 191.746 160.643 191.534C160.87 191.323 161.066 191.054 161.229 190.729C161.391 190.403 161.53 190.045 161.644 189.654C161.774 189.247 161.896 188.857 162.01 188.482C162.124 188.092 162.238 187.742 162.352 187.433C162.482 187.107 162.628 186.863 162.791 186.7C162.889 186.603 162.938 186.383 162.938 186.041C162.938 185.536 162.905 185.081 162.84 184.674C162.775 184.267 162.742 183.86 162.742 183.453C162.742 182.493 162.807 181.524 162.938 180.548C163.068 179.555 163.133 178.554 163.133 177.545C163.133 177.04 163.092 176.585 163.011 176.178C162.929 175.755 162.84 175.348 162.742 174.957C162.661 174.55 162.579 174.127 162.498 173.688C162.417 173.232 162.376 172.719 162.376 172.149V170.489C162.376 170.196 162.335 169.822 162.254 169.366C162.173 168.894 162.083 168.373 161.985 167.804C161.904 167.234 161.823 166.624 161.741 165.973C161.66 165.322 161.619 164.679 161.619 164.044C161.619 163.409 161.692 162.913 161.839 162.555C162.002 162.197 162.205 161.928 162.449 161.749C162.693 161.57 162.97 161.448 163.279 161.383C163.589 161.318 163.89 161.261 164.183 161.212C164.541 161.147 164.915 161.09 165.306 161.041C165.713 160.976 166.103 160.943 166.478 160.943C166.852 160.943 167.145 160.992 167.356 161.09C167.584 161.171 167.78 161.285 167.942 161.432C168.121 161.562 168.292 161.716 168.455 161.896C168.634 162.075 168.862 162.262 169.139 162.457C169.513 162.701 169.871 162.872 170.213 162.97C170.571 163.051 170.823 163.181 170.97 163.36C171.23 163.702 171.409 164.174 171.507 164.776C171.621 165.379 171.678 166.038 171.678 166.754C171.678 167.763 171.621 168.788 171.507 169.83C171.409 170.855 171.336 171.743 171.287 172.491ZM199.876 184.698C199.909 184.845 199.933 185.007 199.949 185.187C199.965 185.349 199.974 185.52 199.974 185.699C199.974 186.122 199.933 186.562 199.852 187.018C199.77 187.457 199.664 187.896 199.534 188.336C199.42 188.775 199.29 189.199 199.144 189.605C199.013 189.996 198.891 190.362 198.777 190.704C198.549 191.371 198.379 191.876 198.265 192.218C198.151 192.56 198.037 192.812 197.923 192.975C197.809 193.121 197.662 193.202 197.483 193.219C197.321 193.235 197.068 193.243 196.727 193.243C196.482 193.243 196.165 193.186 195.774 193.072C195.384 192.942 194.985 192.755 194.578 192.511C194.171 192.25 193.789 191.933 193.431 191.559C193.089 191.184 192.853 190.745 192.723 190.24C192.723 190.143 192.755 189.98 192.82 189.752C192.885 189.524 192.918 189.272 192.918 188.995C192.902 188.816 192.869 188.556 192.82 188.214C192.788 187.872 192.739 187.498 192.674 187.091C192.609 186.668 192.535 186.244 192.454 185.821C192.389 185.382 192.308 184.983 192.21 184.625C192.112 184.267 192.007 183.974 191.893 183.746C191.795 183.518 191.689 183.404 191.575 183.404C191.152 183.404 190.843 183.469 190.647 183.6C190.468 183.714 190.314 183.844 190.184 183.99C190.053 184.12 189.907 184.251 189.744 184.381C189.598 184.495 189.354 184.552 189.012 184.552C188.686 184.552 188.328 184.519 187.938 184.454C187.547 184.373 187.107 184.291 186.619 184.21C186.147 184.112 185.626 184.031 185.057 183.966C184.487 183.884 183.86 183.844 183.177 183.844C182.819 183.844 182.493 183.86 182.2 183.893C181.907 183.909 181.712 183.958 181.614 184.039C181.435 184.186 181.305 184.47 181.224 184.894C181.142 185.317 181.077 185.789 181.028 186.31C180.979 186.814 180.939 187.319 180.906 187.823C180.874 188.312 180.809 188.702 180.711 188.995C180.678 189.044 180.613 189.142 180.516 189.288C180.418 189.418 180.304 189.581 180.174 189.776C180.044 189.955 179.913 190.159 179.783 190.387C179.653 190.598 179.547 190.802 179.466 190.997C179.271 191.437 179.1 191.941 178.953 192.511C178.823 193.064 178.66 193.585 178.465 194.073C178.286 194.578 178.058 195.001 177.781 195.343C177.505 195.685 177.13 195.855 176.658 195.855C176.349 195.855 176.056 195.782 175.779 195.636C175.519 195.489 175.283 195.318 175.071 195.123C174.876 194.944 174.713 194.765 174.583 194.586C174.453 194.423 174.38 194.309 174.363 194.244C174.168 193.902 173.973 193.626 173.777 193.414C173.598 193.186 173.427 192.983 173.265 192.804C173.102 192.625 172.972 192.438 172.874 192.242C172.776 192.031 172.728 191.77 172.728 191.461C172.728 191.347 172.736 191.192 172.752 190.997C172.752 190.802 172.768 190.598 172.801 190.387C172.817 190.175 172.841 189.972 172.874 189.776C172.907 189.581 172.939 189.418 172.972 189.288C173.004 189.207 173.061 189.125 173.143 189.044C173.24 188.946 173.33 188.849 173.411 188.751C173.509 188.653 173.59 188.564 173.655 188.482C173.737 188.385 173.777 188.287 173.777 188.189C173.777 188.059 173.737 187.937 173.655 187.823C173.59 187.709 173.558 187.587 173.558 187.457C173.558 187.424 173.566 187.4 173.582 187.384C173.598 187.368 173.606 187.343 173.606 187.311C173.769 186.822 173.965 186.35 174.192 185.895C174.437 185.439 174.664 184.975 174.876 184.503C175.104 184.015 175.299 183.518 175.462 183.014C175.641 182.493 175.747 181.923 175.779 181.305C175.779 181.012 175.779 180.694 175.779 180.353C175.796 180.011 175.812 179.669 175.828 179.327C175.861 178.969 175.901 178.627 175.95 178.302C176.015 177.96 176.105 177.659 176.219 177.398C176.235 177.35 176.308 177.268 176.438 177.154C176.585 177.04 176.74 176.894 176.902 176.715C177.065 176.52 177.203 176.292 177.317 176.031C177.448 175.755 177.513 175.445 177.513 175.104C177.513 174.924 177.496 174.737 177.464 174.542C177.431 174.347 177.415 174.151 177.415 173.956C177.415 173.728 177.448 173.541 177.513 173.395C177.594 173.232 177.684 173.085 177.781 172.955C177.895 172.809 178.001 172.662 178.099 172.516C178.213 172.369 178.302 172.198 178.367 172.003C178.497 171.661 178.571 171.303 178.587 170.929C178.603 170.538 178.611 170.156 178.611 169.781C178.611 169.391 178.619 169.008 178.636 168.634C178.668 168.259 178.75 167.901 178.88 167.56C178.912 167.413 178.986 167.291 179.1 167.193C179.214 167.079 179.327 166.974 179.441 166.876C179.572 166.762 179.686 166.64 179.783 166.51C179.881 166.38 179.93 166.225 179.93 166.046C179.93 165.916 179.913 165.785 179.881 165.655C179.865 165.509 179.856 165.354 179.856 165.191C179.856 164.817 179.938 164.435 180.101 164.044C180.28 163.653 180.475 163.271 180.687 162.896C180.898 162.506 181.085 162.132 181.248 161.773C181.427 161.399 181.517 161.057 181.517 160.748V160.26C181.517 159.951 181.639 159.633 181.883 159.308C182.143 158.982 182.493 158.689 182.933 158.429C183.372 158.152 183.877 157.932 184.446 157.77C185.032 157.59 185.643 157.501 186.277 157.501C186.635 157.501 186.953 157.55 187.229 157.647C187.522 157.729 187.815 157.826 188.108 157.94C188.401 158.054 188.719 158.168 189.061 158.282C189.402 158.38 189.801 158.437 190.257 158.453C190.517 158.453 190.786 158.429 191.062 158.38C191.355 158.315 191.648 158.25 191.941 158.185C192.234 158.103 192.527 158.038 192.82 157.989C193.113 157.924 193.398 157.892 193.675 157.892C193.821 157.892 194.008 157.94 194.236 158.038C194.48 158.119 194.725 158.233 194.969 158.38C195.229 158.526 195.473 158.697 195.701 158.893C195.945 159.088 196.149 159.291 196.312 159.503C196.604 159.877 196.8 160.349 196.897 160.919C197.011 161.489 197.093 162.099 197.142 162.75C197.207 163.401 197.28 164.052 197.361 164.703C197.443 165.354 197.597 165.94 197.825 166.461C197.907 166.673 198.004 166.868 198.118 167.047C198.232 167.21 198.338 167.389 198.436 167.584C198.549 167.779 198.639 168.007 198.704 168.268C198.785 168.512 198.826 168.821 198.826 169.195C198.826 169.651 198.802 170.115 198.753 170.587C198.704 171.043 198.68 171.482 198.68 171.905C198.68 172.247 198.72 172.532 198.802 172.76C198.899 172.988 198.997 173.191 199.095 173.37C199.192 173.533 199.282 173.696 199.363 173.858C199.461 174.021 199.51 174.216 199.51 174.444C199.51 174.754 199.461 175.104 199.363 175.494C199.266 175.885 199.217 176.267 199.217 176.642C199.217 177 199.274 177.325 199.388 177.618C199.502 177.911 199.542 178.204 199.51 178.497C199.493 178.806 199.437 179.116 199.339 179.425C199.241 179.734 199.135 180.035 199.021 180.328C198.908 180.621 198.802 180.914 198.704 181.207C198.606 181.5 198.558 181.785 198.558 182.062C198.558 182.289 198.615 182.509 198.729 182.721C198.842 182.932 198.973 183.144 199.119 183.355C199.266 183.567 199.412 183.787 199.559 184.015C199.705 184.226 199.811 184.454 199.876 184.698ZM190.428 178.351C190.525 178.204 190.574 178.017 190.574 177.789C190.574 177.561 190.534 177.301 190.452 177.008C190.371 176.715 190.281 176.438 190.184 176.178C190.102 175.901 190.021 175.657 189.939 175.445C189.858 175.234 189.817 175.087 189.817 175.006C189.817 174.843 189.842 174.68 189.891 174.518C189.939 174.355 189.964 174.184 189.964 174.005C189.964 173.582 189.874 173.15 189.695 172.711C189.516 172.271 189.313 171.873 189.085 171.515C188.873 171.14 188.67 170.823 188.475 170.562C188.279 170.286 188.157 170.099 188.108 170.001C187.994 169.741 187.913 169.48 187.864 169.22C187.832 168.943 187.783 168.683 187.718 168.438C187.669 168.194 187.596 167.983 187.498 167.804C187.4 167.625 187.238 167.486 187.01 167.389C186.684 168.365 186.334 169.326 185.96 170.27C185.602 171.214 185.244 172.174 184.886 173.15C184.544 174.111 184.218 175.104 183.909 176.129C183.616 177.138 183.372 178.196 183.177 179.303C183.746 179.221 184.332 179.173 184.935 179.156C185.537 179.124 186.18 179.059 186.863 178.961C186.961 178.945 187.197 178.912 187.571 178.863C187.946 178.814 188.336 178.757 188.743 178.692C189.166 178.627 189.541 178.562 189.866 178.497C190.208 178.432 190.395 178.383 190.428 178.351ZM228.88 181.451C228.88 181.581 228.888 181.712 228.904 181.842C228.921 181.956 228.929 182.078 228.929 182.208C228.929 182.908 228.872 183.64 228.758 184.405C228.644 185.154 228.587 185.919 228.587 186.7C228.587 186.977 228.595 187.278 228.611 187.604C228.628 187.913 228.636 188.23 228.636 188.556C228.636 188.963 228.603 189.369 228.538 189.776C228.489 190.183 228.383 190.558 228.221 190.899C228.058 191.225 227.814 191.493 227.488 191.705C227.179 191.9 226.772 191.998 226.268 191.998C225.975 191.998 225.706 191.957 225.462 191.876C225.234 191.778 224.998 191.681 224.754 191.583C224.526 191.469 224.282 191.371 224.021 191.29C223.761 191.192 223.46 191.144 223.118 191.144C222.841 191.144 222.508 191.16 222.117 191.192C221.727 191.225 221.328 191.241 220.921 191.241C220.368 191.241 219.969 191.201 219.725 191.119C219.48 191.038 219.31 190.916 219.212 190.753C219.114 190.59 219.041 190.387 218.992 190.143C218.96 189.898 218.87 189.614 218.724 189.288C218.642 189.158 218.52 189.028 218.357 188.897C218.195 188.767 218.048 188.604 217.918 188.409C217.788 188.198 217.682 188.002 217.601 187.823C217.535 187.644 217.462 187.481 217.381 187.335C217.316 187.172 217.226 187.018 217.112 186.871C217.015 186.725 216.868 186.57 216.673 186.407C216.478 186.261 216.315 186.139 216.185 186.041C216.071 185.943 215.965 185.846 215.867 185.748C215.77 185.65 215.664 185.536 215.55 185.406C215.452 185.276 215.33 185.089 215.184 184.845C214.923 184.503 214.687 184.129 214.476 183.722C214.264 183.315 214.028 182.908 213.768 182.501C213.491 182.094 213.165 181.744 212.791 181.451C212.417 181.142 212.132 180.825 211.937 180.499C211.774 180.255 211.619 179.986 211.473 179.693C211.342 179.384 211.212 179.067 211.082 178.741C210.968 178.399 210.854 178.066 210.74 177.74C210.626 177.398 210.504 177.081 210.374 176.788C210.423 178.074 210.439 179.368 210.423 180.67C210.407 181.972 210.439 183.266 210.521 184.552C210.553 185.105 210.61 185.618 210.691 186.09C210.789 186.546 210.838 187.05 210.838 187.604C210.838 188.076 210.757 188.629 210.594 189.264C210.431 189.882 210.309 190.558 210.228 191.29C210.162 191.843 210.114 192.315 210.081 192.706C210.065 193.097 209.992 193.422 209.861 193.683C209.731 193.927 209.52 194.106 209.227 194.22C208.934 194.334 208.486 194.391 207.884 194.391C207.705 194.391 207.501 194.374 207.273 194.342C207.046 194.326 206.818 194.293 206.59 194.244C206.378 194.195 206.175 194.146 205.979 194.098C205.8 194.049 205.67 194 205.589 193.951C205.507 193.902 205.418 193.756 205.32 193.512C205.223 193.251 205.109 193.032 204.979 192.853C204.832 192.69 204.702 192.543 204.588 192.413C204.474 192.283 204.376 192.136 204.295 191.974C204.214 191.811 204.148 191.616 204.1 191.388C204.051 191.144 204.026 190.834 204.026 190.46C204.026 189.646 204.075 188.808 204.173 187.945C204.271 187.066 204.319 186.236 204.319 185.455C204.319 185.13 204.262 184.723 204.148 184.234C204.035 183.746 203.978 183.25 203.978 182.745C203.978 182.094 203.986 181.459 204.002 180.841C204.018 180.206 204.026 179.579 204.026 178.961C204.026 177.838 203.969 176.739 203.855 175.665C203.742 174.575 203.685 173.5 203.685 172.442C203.685 172.035 203.725 171.661 203.807 171.319C203.904 170.978 204.002 170.636 204.1 170.294C204.214 169.936 204.311 169.553 204.393 169.146C204.49 168.74 204.539 168.259 204.539 167.706C204.539 167.494 204.523 167.283 204.49 167.071C204.474 166.86 204.466 166.656 204.466 166.461C204.466 165.403 204.767 164.614 205.369 164.093C205.988 163.572 206.81 163.312 207.835 163.312C208.291 163.312 208.803 163.36 209.373 163.458C209.943 163.556 210.488 163.678 211.009 163.824C211.546 163.971 212.018 164.142 212.425 164.337C212.848 164.516 213.133 164.703 213.279 164.898C213.426 165.077 213.523 165.338 213.572 165.68C213.637 166.021 213.759 166.331 213.938 166.607C214.134 166.933 214.378 167.226 214.671 167.486C214.98 167.73 215.2 167.95 215.33 168.146C215.411 168.276 215.468 168.471 215.501 168.731C215.534 168.976 215.623 169.252 215.77 169.562C215.883 169.789 216.062 170.034 216.307 170.294C216.567 170.554 216.811 170.823 217.039 171.1C217.234 171.344 217.413 171.612 217.576 171.905C217.739 172.198 217.91 172.451 218.089 172.662C218.528 173.15 218.984 173.59 219.456 173.98C219.944 174.371 220.368 174.794 220.726 175.25C221.002 175.624 221.246 176.015 221.458 176.422C221.67 176.829 221.857 177.203 222.02 177.545C222.199 177.887 222.353 178.172 222.483 178.399C222.614 178.627 222.744 178.741 222.874 178.741C223.004 178.741 223.086 178.603 223.118 178.326C223.151 178.033 223.167 177.675 223.167 177.252C223.167 176.943 223.159 176.609 223.143 176.251C223.126 175.893 223.11 175.551 223.094 175.226C223.077 174.884 223.061 174.583 223.045 174.322C223.029 174.046 223.021 173.842 223.021 173.712C223.021 173.451 223.069 173.175 223.167 172.882C223.281 172.589 223.338 172.231 223.338 171.808C223.338 171.14 223.297 170.449 223.216 169.732C223.151 169.016 223.118 168.292 223.118 167.56C223.118 167.055 223.159 166.575 223.24 166.119C223.338 165.663 223.436 165.232 223.533 164.825C223.647 164.402 223.745 163.995 223.826 163.604C223.924 163.198 223.973 162.799 223.973 162.408C223.973 162.001 223.94 161.635 223.875 161.31C223.826 160.984 223.769 160.683 223.704 160.406C223.639 160.113 223.574 159.845 223.509 159.601C223.46 159.34 223.436 159.088 223.436 158.844C223.436 158.583 223.484 158.331 223.582 158.087C223.68 157.843 223.81 157.623 223.973 157.428C224.152 157.232 224.363 157.078 224.607 156.964C224.868 156.85 225.161 156.793 225.486 156.793C225.551 156.793 225.73 156.817 226.023 156.866C226.333 156.899 226.65 157.021 226.976 157.232C227.317 157.428 227.618 157.737 227.879 158.16C228.139 158.583 228.27 159.177 228.27 159.942C228.27 160.268 228.245 160.602 228.196 160.943C228.147 161.285 228.123 161.668 228.123 162.091C228.123 162.872 228.147 163.645 228.196 164.41C228.261 165.159 228.326 165.891 228.392 166.607C228.473 167.307 228.538 167.991 228.587 168.658C228.652 169.309 228.685 169.92 228.685 170.489C228.685 171.466 228.628 172.418 228.514 173.346C228.416 174.257 228.367 175.038 228.367 175.689C228.367 176.65 228.432 177.634 228.562 178.644C228.693 179.653 228.799 180.589 228.88 181.451ZM256.492 170.538C256.378 172.003 256.256 173.468 256.126 174.933C256.012 176.397 255.931 177.773 255.882 179.059C255.849 179.482 255.784 179.848 255.687 180.157C255.589 180.45 255.54 180.784 255.54 181.158C255.54 181.451 255.556 181.752 255.589 182.062C255.621 182.354 255.638 182.664 255.638 182.989C255.638 183.901 255.548 184.706 255.369 185.406C255.206 186.09 254.995 186.708 254.734 187.262C254.474 187.815 254.181 188.312 253.855 188.751C253.53 189.19 253.221 189.605 252.928 189.996C252.684 190.322 252.439 190.647 252.195 190.973C251.951 191.298 251.626 191.591 251.219 191.852C251.137 191.933 250.991 191.99 250.779 192.022C250.584 192.039 250.381 192.096 250.169 192.193C249.99 192.275 249.852 192.389 249.754 192.535C249.656 192.665 249.534 192.755 249.388 192.804C249.16 192.885 248.761 192.983 248.191 193.097C247.622 193.194 247.028 193.308 246.409 193.438C245.791 193.552 245.229 193.691 244.725 193.854C244.22 194 243.919 194.163 243.821 194.342C243.919 194.635 243.984 194.944 244.017 195.27C244.065 195.595 244.131 195.896 244.212 196.173C244.31 196.45 244.448 196.677 244.627 196.856C244.822 197.052 245.107 197.149 245.481 197.149C245.791 197.149 246.108 197.101 246.434 197.003C246.775 196.922 247.093 196.824 247.386 196.71C247.679 196.596 247.931 196.49 248.143 196.393C248.37 196.295 248.533 196.23 248.631 196.197C248.875 196.132 249.176 196.043 249.534 195.929C249.892 195.831 250.25 195.733 250.608 195.636C250.966 195.538 251.308 195.457 251.634 195.392C251.976 195.326 252.244 195.294 252.439 195.294C252.781 195.294 253.09 195.4 253.367 195.611C253.644 195.839 253.872 196.148 254.051 196.539C254.246 196.93 254.393 197.385 254.49 197.906C254.588 198.443 254.637 199.021 254.637 199.64C254.637 200.372 254.555 201.048 254.393 201.666C254.23 202.301 253.961 202.748 253.587 203.009C253.489 203.074 253.245 203.163 252.854 203.277C252.48 203.391 252.073 203.505 251.634 203.619C251.211 203.733 250.812 203.831 250.438 203.912C250.063 204.01 249.827 204.059 249.729 204.059C249.371 204.059 248.916 203.977 248.362 203.814C247.825 203.668 247.247 203.595 246.629 203.595C246.108 203.595 245.636 203.611 245.213 203.644C244.806 203.676 244.432 203.692 244.09 203.692C243.504 203.692 242.934 203.562 242.381 203.302C241.844 203.058 241.364 202.7 240.94 202.228C240.517 201.756 240.175 201.186 239.915 200.519C239.655 199.868 239.524 199.127 239.524 198.297C239.524 198.102 239.565 197.857 239.646 197.564C239.728 197.271 239.809 196.954 239.891 196.612C239.988 196.271 240.078 195.921 240.159 195.562C240.241 195.221 240.281 194.903 240.281 194.61C240.281 194.171 240.094 193.862 239.72 193.683C239.345 193.487 238.89 193.349 238.353 193.268C237.832 193.186 237.286 193.129 236.717 193.097C236.163 193.048 235.7 192.95 235.325 192.804C234.935 192.657 234.601 192.446 234.324 192.169C234.064 191.892 233.82 191.575 233.592 191.217C233.38 190.859 233.177 190.46 232.981 190.021C232.802 189.581 232.599 189.125 232.371 188.653C232.225 188.328 232.062 187.929 231.883 187.457C231.72 186.985 231.639 186.497 231.639 185.992C231.639 185.65 231.679 185.284 231.761 184.894C231.842 184.503 231.94 184.104 232.054 183.697C232.184 183.274 232.306 182.843 232.42 182.403C232.55 181.964 232.656 181.516 232.737 181.061C232.868 180.182 232.957 179.27 233.006 178.326C233.071 177.366 233.177 176.471 233.323 175.641C233.372 175.445 233.445 175.25 233.543 175.055C233.657 174.843 233.738 174.623 233.787 174.396C233.917 173.826 234.007 173.207 234.056 172.54C234.104 171.873 234.153 171.222 234.202 170.587C234.251 169.936 234.316 169.326 234.397 168.756C234.495 168.17 234.658 167.682 234.886 167.291C234.967 167.161 235.089 167.047 235.252 166.949C235.415 166.852 235.594 166.762 235.789 166.681C236.001 166.583 236.212 166.477 236.424 166.363C236.635 166.249 236.839 166.111 237.034 165.948C237.164 165.834 237.27 165.704 237.352 165.558C237.433 165.395 237.498 165.232 237.547 165.069C237.612 164.907 237.677 164.752 237.742 164.605C237.807 164.459 237.889 164.337 237.986 164.239C238.068 164.142 238.206 164.06 238.401 163.995C238.613 163.93 238.776 163.849 238.89 163.751C239.069 163.604 239.183 163.466 239.231 163.336C239.297 163.189 239.394 163.076 239.524 162.994C239.899 162.783 240.395 162.604 241.014 162.457C241.648 162.311 242.267 162.123 242.869 161.896C243.455 161.668 243.992 161.399 244.48 161.09C244.985 160.781 245.433 160.536 245.823 160.357C246.035 160.309 246.295 160.292 246.604 160.309C246.914 160.325 247.223 160.292 247.532 160.211C247.728 160.162 247.898 160.113 248.045 160.064C248.208 160.016 248.37 159.975 248.533 159.942C248.696 159.894 248.875 159.853 249.07 159.82C249.282 159.788 249.534 159.763 249.827 159.747C249.86 159.747 249.9 159.723 249.949 159.674C250.014 159.625 250.088 159.601 250.169 159.601C250.381 159.601 250.633 159.649 250.926 159.747C251.235 159.828 251.536 159.934 251.829 160.064C252.122 160.195 252.391 160.333 252.635 160.479C252.895 160.61 253.09 160.732 253.221 160.846C253.367 160.96 253.497 161.114 253.611 161.31C253.725 161.489 253.839 161.684 253.953 161.896C254.083 162.107 254.214 162.327 254.344 162.555C254.474 162.766 254.62 162.962 254.783 163.141C255.06 163.45 255.361 163.694 255.687 163.873C256.012 164.052 256.224 164.231 256.321 164.41C256.451 164.638 256.541 164.972 256.59 165.411C256.655 165.851 256.688 166.331 256.688 166.852C256.688 167.47 256.663 168.121 256.614 168.805C256.582 169.472 256.541 170.05 256.492 170.538ZM248.631 178.741C248.598 178.465 248.541 178.204 248.46 177.96C248.379 177.716 248.297 177.464 248.216 177.203C248.134 176.943 248.053 176.666 247.972 176.373C247.907 176.064 247.874 175.706 247.874 175.299C247.874 174.745 247.809 174.282 247.679 173.907C247.549 173.533 247.394 173.207 247.215 172.931C247.036 172.654 246.857 172.394 246.678 172.149C246.499 171.905 246.368 171.637 246.287 171.344C246.173 170.969 246.1 170.489 246.067 169.903C246.035 169.317 245.986 168.748 245.921 168.194C245.856 167.625 245.742 167.145 245.579 166.754C245.433 166.347 245.18 166.144 244.822 166.144C243.943 166.144 243.235 166.331 242.698 166.705C242.177 167.079 241.771 167.584 241.478 168.219C241.201 168.854 241.006 169.594 240.892 170.44C240.778 171.271 240.688 172.149 240.623 173.077C240.574 174.005 240.525 174.957 240.477 175.934C240.428 176.91 240.314 177.846 240.135 178.741C240.102 178.855 240.045 179.01 239.964 179.205C239.899 179.4 239.817 179.604 239.72 179.815C239.638 180.027 239.557 180.23 239.476 180.426C239.394 180.621 239.345 180.776 239.329 180.89C239.297 181.036 239.248 181.305 239.183 181.695C239.118 182.086 239.052 182.55 238.987 183.087C238.922 183.608 238.857 184.186 238.792 184.82C238.743 185.439 238.719 186.049 238.719 186.651C238.719 187.042 238.759 187.343 238.841 187.555C238.922 187.75 239.036 187.921 239.183 188.067C239.329 188.198 239.492 188.312 239.671 188.409C239.866 188.507 240.07 188.637 240.281 188.8C240.558 189.028 240.835 189.239 241.111 189.435C241.404 189.614 241.714 189.703 242.039 189.703C242.348 189.703 242.723 189.646 243.162 189.532C243.618 189.418 244.065 189.28 244.505 189.117C244.944 188.954 245.343 188.784 245.701 188.604C246.059 188.425 246.303 188.271 246.434 188.141C246.629 187.962 246.784 187.652 246.897 187.213C247.011 186.757 247.223 186.253 247.532 185.699C247.646 185.455 247.768 185.252 247.898 185.089C248.029 184.926 248.151 184.763 248.265 184.601C248.379 184.438 248.468 184.259 248.533 184.063C248.598 183.852 248.631 183.583 248.631 183.258C248.631 182.883 248.606 182.477 248.558 182.037C248.509 181.598 248.484 181.166 248.484 180.743C248.484 180.45 248.509 180.141 248.558 179.815C248.606 179.49 248.631 179.205 248.631 178.961V178.741ZM281.224 179.059V179.352C281.224 179.807 281.199 180.304 281.15 180.841C281.102 181.362 281.077 181.85 281.077 182.306C281.077 182.582 281.085 182.867 281.102 183.16C281.118 183.437 281.126 183.714 281.126 183.99C281.126 184.332 281.085 184.649 281.004 184.942C280.923 185.219 280.825 185.496 280.711 185.772C280.597 186.033 280.467 186.31 280.32 186.603C280.19 186.879 280.076 187.197 279.979 187.555C279.897 187.848 279.824 188.149 279.759 188.458C279.71 188.751 279.661 189.044 279.612 189.337C279.563 189.63 279.507 189.907 279.441 190.167C279.393 190.411 279.319 190.623 279.222 190.802C278.961 191.323 278.579 191.803 278.074 192.242C277.57 192.682 277.049 193.064 276.512 193.39C275.991 193.699 275.519 193.943 275.096 194.122C274.673 194.301 274.404 194.391 274.29 194.391C273.932 194.391 273.574 194.358 273.216 194.293C272.874 194.228 272.516 194.195 272.142 194.195C271.458 194.195 270.758 194.252 270.042 194.366C269.342 194.496 268.642 194.562 267.942 194.562C267.503 194.562 267.112 194.521 266.771 194.439C266.445 194.374 266.087 194.244 265.696 194.049C265.306 193.854 264.85 193.585 264.329 193.243C263.825 192.885 263.174 192.421 262.376 191.852C261.985 191.575 261.644 191.339 261.351 191.144C261.074 190.932 260.83 190.672 260.618 190.362C260.407 190.053 260.219 189.646 260.057 189.142C259.894 188.637 259.739 187.953 259.593 187.091C259.593 187.009 259.585 186.936 259.568 186.871C259.552 186.806 259.544 186.733 259.544 186.651C259.544 186.391 259.56 186.139 259.593 185.895C259.625 185.634 259.642 185.366 259.642 185.089C259.642 184.812 259.601 184.56 259.52 184.332C259.438 184.088 259.349 183.852 259.251 183.624C259.153 183.396 259.064 183.176 258.982 182.965C258.901 182.753 258.852 182.534 258.836 182.306C258.836 182.175 258.885 181.98 258.982 181.72C259.08 181.459 259.129 181.199 259.129 180.938V180.108C259.129 179.897 259.161 179.701 259.227 179.522C259.292 179.343 259.365 179.173 259.446 179.01C259.544 178.831 259.625 178.652 259.69 178.473C259.756 178.277 259.788 178.066 259.788 177.838C259.788 177.317 259.723 176.796 259.593 176.275C259.479 175.738 259.422 175.209 259.422 174.688C259.422 174.249 259.536 173.777 259.764 173.272C259.992 172.752 260.195 172.158 260.374 171.49C260.504 171.018 260.602 170.514 260.667 169.977C260.748 169.423 260.854 168.894 260.984 168.39C261.163 167.69 261.359 167.006 261.57 166.339C261.782 165.672 262.002 164.923 262.229 164.093C262.311 163.767 262.409 163.466 262.522 163.189C262.636 162.896 262.693 162.636 262.693 162.408C262.693 162.229 262.677 162.058 262.645 161.896C262.612 161.716 262.596 161.554 262.596 161.407C262.596 161.147 262.726 160.903 262.986 160.675C263.247 160.431 263.613 160.309 264.085 160.309C264.541 160.309 264.972 160.398 265.379 160.577C265.802 160.74 266.168 160.951 266.478 161.212C266.803 161.472 267.055 161.765 267.234 162.091C267.43 162.4 267.527 162.701 267.527 162.994C267.527 163.255 267.503 163.556 267.454 163.897C267.405 164.223 267.34 164.549 267.259 164.874C267.194 165.2 267.12 165.517 267.039 165.826C266.974 166.119 266.925 166.363 266.893 166.559C266.714 167.503 266.535 168.471 266.355 169.464C266.193 170.457 266.038 171.466 265.892 172.491C265.761 173.5 265.656 174.534 265.574 175.592C265.493 176.633 265.46 177.683 265.477 178.741C265.477 179.815 265.525 180.898 265.623 181.988C265.656 182.249 265.672 182.542 265.672 182.867C265.672 183.193 265.672 183.518 265.672 183.844C265.688 184.169 265.713 184.47 265.745 184.747C265.778 185.024 265.843 185.243 265.94 185.406C266.006 185.52 266.168 185.65 266.429 185.797C266.705 185.943 267.039 186.09 267.43 186.236C267.82 186.367 268.235 186.48 268.675 186.578C269.114 186.66 269.537 186.7 269.944 186.7C270.53 186.7 270.953 186.586 271.214 186.358C271.491 186.131 271.678 185.829 271.775 185.455C271.873 185.064 271.914 184.625 271.897 184.137C271.881 183.632 271.889 183.119 271.922 182.599C271.954 181.98 272.028 181.378 272.142 180.792C272.272 180.206 272.321 179.677 272.288 179.205C272.256 178.603 272.15 177.936 271.971 177.203C271.792 176.454 271.678 175.689 271.629 174.908C271.629 174.632 271.653 174.355 271.702 174.078C271.751 173.785 271.775 173.508 271.775 173.248C271.775 173.036 271.759 172.776 271.727 172.467C271.71 172.158 271.686 171.824 271.653 171.466C271.621 171.091 271.588 170.709 271.556 170.318C271.539 169.911 271.531 169.505 271.531 169.098C271.531 168.072 271.645 167.242 271.873 166.607C272.117 165.973 272.605 165.655 273.338 165.655C273.582 165.655 273.851 165.672 274.144 165.704C274.437 165.737 274.729 165.769 275.022 165.802C275.299 165.802 275.617 165.777 275.975 165.729C276.333 165.68 276.683 165.655 277.024 165.655C277.236 165.655 277.488 165.712 277.781 165.826C278.074 165.94 278.359 166.111 278.636 166.339C278.929 166.567 279.189 166.868 279.417 167.242C279.661 167.617 279.848 168.056 279.979 168.561C280.076 169 280.133 169.48 280.149 170.001C280.166 170.522 280.215 171.018 280.296 171.49C280.394 172.044 280.499 172.597 280.613 173.15C280.727 173.704 280.784 174.216 280.784 174.688C280.784 174.998 280.776 175.307 280.76 175.616C280.743 175.909 280.735 176.202 280.735 176.495C280.735 177.016 280.809 177.464 280.955 177.838C281.102 178.196 281.191 178.603 281.224 179.059ZM310.154 187.604C310.105 187.75 310.024 187.88 309.91 187.994C309.796 188.108 309.723 188.246 309.69 188.409C309.625 188.621 309.585 188.84 309.568 189.068C309.552 189.28 309.52 189.492 309.471 189.703C309.438 189.915 309.381 190.118 309.3 190.313C309.218 190.509 309.088 190.688 308.909 190.851C308.714 191.03 308.437 191.176 308.079 191.29C307.721 191.404 307.33 191.51 306.907 191.607C306.5 191.705 306.085 191.803 305.662 191.9C305.255 191.998 304.897 192.112 304.588 192.242C304.344 192.356 304.108 192.519 303.88 192.73C303.652 192.926 303.416 193.137 303.172 193.365C302.928 193.577 302.667 193.78 302.391 193.976C302.13 194.171 301.829 194.309 301.487 194.391C301.243 194.472 300.934 194.529 300.56 194.562C300.185 194.61 299.835 194.659 299.51 194.708C299.184 194.773 298.794 194.838 298.338 194.903C297.898 194.985 297.418 195.058 296.897 195.123C296.393 195.204 295.864 195.27 295.311 195.318C294.773 195.367 294.253 195.392 293.748 195.392C293.227 195.392 292.812 195.351 292.503 195.27C292.21 195.204 291.958 195.115 291.746 195.001C291.535 194.887 291.331 194.757 291.136 194.61C290.94 194.48 290.696 194.358 290.403 194.244C289.948 194.098 289.484 194 289.012 193.951C288.54 193.902 288.068 193.829 287.596 193.731C287.124 193.634 286.652 193.479 286.18 193.268C285.708 193.056 285.244 192.714 284.788 192.242C284.739 192.193 284.69 192.112 284.642 191.998C284.593 191.868 284.544 191.729 284.495 191.583C284.446 191.437 284.397 191.298 284.349 191.168C284.3 191.038 284.251 190.932 284.202 190.851C284.039 190.623 283.852 190.436 283.641 190.289C283.445 190.126 283.258 189.972 283.079 189.825C282.916 189.662 282.778 189.483 282.664 189.288C282.55 189.093 282.493 188.849 282.493 188.556C282.493 188.344 282.566 188.124 282.713 187.896C282.859 187.652 283.038 187.433 283.25 187.237C283.462 187.042 283.689 186.879 283.934 186.749C284.178 186.619 284.397 186.554 284.593 186.554H284.959C285.171 186.554 285.341 186.497 285.472 186.383C285.618 186.269 285.732 186.131 285.813 185.968C285.895 185.805 285.952 185.626 285.984 185.431C286.033 185.235 286.058 185.056 286.058 184.894C286.058 184.552 286.025 184.161 285.96 183.722C285.911 183.282 285.887 182.778 285.887 182.208C285.887 181.931 285.895 181.655 285.911 181.378C285.944 181.085 285.96 180.808 285.96 180.548C285.96 180.141 285.903 179.799 285.789 179.522C285.691 179.246 285.626 178.953 285.594 178.644C285.512 177.895 285.447 177.073 285.398 176.178C285.366 175.283 285.35 174.355 285.35 173.395C285.35 172.955 285.366 172.499 285.398 172.027C285.431 171.555 285.464 171.091 285.496 170.636C285.529 170.18 285.561 169.749 285.594 169.342C285.626 168.919 285.643 168.552 285.643 168.243C285.643 168.048 285.512 167.893 285.252 167.779C285.008 167.665 284.739 167.519 284.446 167.34C284.153 167.161 283.877 166.917 283.616 166.607C283.372 166.282 283.25 165.81 283.25 165.191C283.25 164.54 283.478 163.938 283.934 163.385C284.406 162.831 284.975 162.351 285.643 161.944C286.31 161.521 287.018 161.196 287.767 160.968C288.515 160.724 289.174 160.602 289.744 160.602C290.721 160.602 291.738 160.683 292.796 160.846C293.854 161.008 294.92 161.09 295.994 161.09C296.206 161.09 296.45 161.065 296.727 161.017C297.003 160.951 297.312 160.886 297.654 160.821C298.012 160.756 298.403 160.699 298.826 160.65C299.249 160.585 299.721 160.553 300.242 160.553C300.568 160.553 300.828 160.593 301.023 160.675C301.219 160.756 301.398 160.862 301.561 160.992C301.74 161.106 301.91 161.244 302.073 161.407C302.252 161.554 302.48 161.7 302.757 161.847C302.936 161.944 303.156 162.018 303.416 162.066C303.676 162.115 303.904 162.197 304.1 162.311C304.327 162.408 304.531 162.522 304.71 162.652C304.889 162.766 305.052 162.848 305.198 162.896C305.752 163.092 306.248 163.222 306.688 163.287C307.143 163.352 307.526 163.458 307.835 163.604C308.144 163.735 308.38 163.954 308.543 164.264C308.706 164.557 308.787 165.021 308.787 165.655C308.787 166.55 308.681 167.234 308.47 167.706C308.274 168.178 307.973 168.528 307.566 168.756C307.16 168.967 306.655 169.106 306.053 169.171C305.451 169.236 304.751 169.309 303.953 169.391C303.237 169.472 302.529 169.537 301.829 169.586C301.146 169.635 300.405 169.659 299.607 169.659C298.647 169.659 297.581 169.602 296.409 169.488C295.237 169.358 294.065 169.293 292.894 169.293C292.584 169.293 292.332 169.301 292.137 169.317C291.941 169.334 291.787 169.391 291.673 169.488C291.575 169.586 291.502 169.741 291.453 169.952C291.421 170.164 291.404 170.465 291.404 170.855C291.404 171.132 291.412 171.417 291.429 171.71C291.461 172.003 291.494 172.28 291.526 172.54C291.559 172.8 291.591 173.02 291.624 173.199C291.673 173.378 291.714 173.492 291.746 173.541C291.893 173.704 292.177 173.834 292.601 173.932C293.024 174.013 293.488 174.078 293.992 174.127C294.497 174.16 294.993 174.184 295.481 174.2C295.986 174.2 296.393 174.2 296.702 174.2C297.076 174.2 297.41 174.16 297.703 174.078C298.012 173.997 298.297 173.907 298.558 173.81C298.834 173.696 299.087 173.598 299.314 173.517C299.559 173.435 299.803 173.395 300.047 173.395C300.307 173.395 300.503 173.419 300.633 173.468C300.779 173.517 300.893 173.582 300.975 173.663C301.056 173.728 301.113 173.801 301.146 173.883C301.194 173.948 301.259 174.005 301.341 174.054C301.536 174.184 301.691 174.298 301.805 174.396C301.919 174.493 302.008 174.599 302.073 174.713C302.138 174.827 302.179 174.973 302.195 175.152C302.228 175.315 302.244 175.535 302.244 175.812C302.244 176.739 302.179 177.455 302.049 177.96C301.919 178.465 301.65 178.847 301.243 179.107C300.853 179.352 300.291 179.514 299.559 179.596C298.842 179.661 297.89 179.71 296.702 179.742C296.263 179.758 295.905 179.783 295.628 179.815C295.351 179.832 295.14 179.881 294.993 179.962C294.847 180.027 294.741 180.125 294.676 180.255C294.627 180.385 294.603 180.564 294.603 180.792C294.603 181.557 294.594 182.2 294.578 182.721C294.578 183.225 294.643 183.64 294.773 183.966C294.904 184.275 295.14 184.503 295.481 184.649C295.823 184.78 296.344 184.845 297.044 184.845C297.581 184.845 298.134 184.82 298.704 184.771C299.274 184.723 299.843 184.666 300.413 184.601C300.983 184.519 301.536 184.43 302.073 184.332C302.627 184.234 303.147 184.137 303.636 184.039C304.043 183.958 304.417 183.852 304.759 183.722C305.101 183.591 305.426 183.469 305.735 183.355C306.061 183.225 306.386 183.119 306.712 183.038C307.037 182.94 307.379 182.892 307.737 182.892C308.616 182.892 309.284 183.144 309.739 183.648C310.211 184.153 310.447 184.885 310.447 185.846C310.447 186.122 310.423 186.415 310.374 186.725C310.325 187.034 310.252 187.327 310.154 187.604Z" fill="#D7D4D3"/>
</svg>
